<?xml version="1.0" encoding="UTF-8"?> <svg xmlns="http://www.w3.org/2000/svg" width="280" height="280" viewBox="0 0 280 280" fill="none"><path d="M56.2567 90.9207C56.2567 80.2153 64.9647 71.5073 75.67 71.5073H135.24V61.0073H75.67C59.178 61.0073 45.7567 74.424 45.7567 90.9207V108.206H56.2567V90.9207Z" fill="#FF5349"></path><path d="M213.477 61.0073H195.907V71.5073H213.477C224.182 71.5073 232.89 80.2153 232.89 90.9207V187.054C232.89 197.755 224.182 206.467 213.477 206.467H207.102L207.307 223.449L181.617 206.467H75.67C64.9647 206.467 56.2567 197.759 56.2567 187.054V164.201H45.7567V187.054C45.7567 203.546 59.178 216.967 75.67 216.967H178.463L218.041 243.133L217.723 216.664C232.213 214.597 243.39 202.104 243.39 187.054V90.9207C243.39 74.424 229.969 61.0073 213.477 61.0073Z" fill="#003366"></path><path d="M174.911 154.84C174.543 153.445 173.656 152.278 172.424 151.559C169.955 150.099 166.493 151.009 165.051 153.468C165.032 153.501 163.198 156.529 159.805 159.465C151.093 166.992 139.874 166.992 131.157 159.465C127.755 156.511 125.93 153.501 125.911 153.473C124.404 150.92 121.095 150.057 118.543 151.564C117.297 152.287 116.415 153.454 116.051 154.849C115.687 156.245 115.887 157.691 116.62 158.951C116.891 159.399 119.359 163.45 123.881 167.426C130.209 172.979 137.681 175.919 145.483 175.919C153.286 175.919 160.753 172.979 167.09 167.421C171.607 163.445 174.076 159.395 174.351 158.937C175.079 157.691 175.275 156.235 174.911 154.84Z" fill="#003366"></path><path d="M93.0813 124.357C90.1833 122.253 90.048 117.95 92.8433 115.71C96.432 112.831 101.892 109.765 108.845 109.765C115.799 109.765 121.254 112.826 124.843 115.705C127.643 117.95 127.503 122.253 124.605 124.362C122.612 125.813 119.901 125.743 117.973 124.208C115.85 122.514 112.681 120.699 108.845 120.699C104.986 120.699 101.817 122.509 99.7033 124.203C97.7807 125.739 95.0693 125.804 93.0813 124.357Z" fill="#003366"></path><path d="M166.357 124.357C163.459 122.253 163.324 117.95 166.119 115.71C169.708 112.831 175.168 109.765 182.121 109.765C189.075 109.765 194.53 112.826 198.119 115.705C200.919 117.95 200.779 122.253 197.881 124.362C195.888 125.813 193.177 125.743 191.249 124.208C189.126 122.514 185.957 120.699 182.121 120.699C178.262 120.699 175.093 122.509 172.979 124.203C171.057 125.739 168.345 125.804 166.357 124.357Z" fill="#003366"></path><path d="M48.5333 101.453C42.7373 102.569 37.9913 107.31 36.8853 113.111C34.7713 124.199 45.1173 133.691 56.364 130.069C60.6667 128.683 64.162 125.193 65.5527 120.89C69.188 109.643 59.6493 99.3113 48.5333 101.453ZM51.4733 119.201C49.7 119.201 48.258 117.768 48.258 116.009C48.258 114.249 49.7 112.821 51.4733 112.821C53.2467 112.821 54.6887 114.249 54.6887 116.009C54.6887 117.768 53.2467 119.201 51.4733 119.201Z" fill="#FF5349"></path><path d="M48.5333 141.699C42.7373 142.814 37.9913 147.555 36.8853 153.356C34.7713 164.444 45.1173 173.936 56.364 170.315C60.6667 168.929 64.162 165.438 65.5527 161.135C69.188 149.889 59.6493 139.557 48.5333 141.699ZM51.4733 159.446C49.7 159.446 48.258 158.013 48.258 156.254C48.258 154.495 49.7 153.067 51.4733 153.067C53.2467 153.067 54.6887 154.495 54.6887 156.254C54.6887 158.013 53.2467 159.446 51.4733 159.446Z" fill="#003366"></path><path d="M204.951 63.196C203.835 57.4 199.094 52.654 193.293 51.548C182.205 49.434 172.713 59.78 176.335 71.0267C177.721 75.3293 181.211 78.8247 185.514 80.2153C196.761 83.8507 207.093 74.312 204.951 63.196ZM187.203 66.136C187.203 64.3627 188.636 62.9207 190.395 62.9207C192.155 62.9207 193.583 64.3627 193.583 66.136C193.583 67.9093 192.155 69.3513 190.395 69.3513C188.636 69.3513 187.203 67.9093 187.203 66.136Z" fill="#003366"></path><path d="M160.039 63.196C158.923 57.4 154.182 52.654 148.381 51.548C137.293 49.434 127.801 59.78 131.423 71.0267C132.809 75.3293 136.299 78.8247 140.602 80.2153C151.849 83.8507 162.181 74.312 160.039 63.196ZM142.291 66.136C142.291 64.3627 143.724 62.9207 145.483 62.9207C147.243 62.9207 148.671 64.3627 148.671 66.136C148.671 67.9093 147.243 69.3513 145.483 69.3513C143.724 69.3513 142.291 67.9093 142.291 66.136Z" fill="#FF5349"></path></svg> 